<?xml version="1.0" encoding="UTF-8"?>
<svg id="Layer_1" xmlns="http://www.w3.org/2000/svg" xmlns:xlink="http://www.w3.org/1999/xlink" version="1.1" width="310" height="115" viewBox="0 0 310 115">
  <!-- Generator: Adobe Illustrator 30.0.0, SVG Export Plug-In . SVG Version: 2.1.1 Build 123)  -->
  <defs>
    <style>
      .st0 {
        fill: none;
      }

      .st1 {
        isolation: isolate;
      }

      .st2 {
        clip-path: url(#clippath-1);
      }

      .st3 {
        clip-path: url(#clippath-2);
      }

      .st4 {
        fill: #fff;
      }

      .st5 {
        fill: #0083b0;
      }

      .st6 {
        fill: #286867;
      }

      .st7 {
        fill: #00467c;
      }

      .st8 {
        clip-path: url(#clippath);
      }
    </style>
    <clipPath id="clippath">
      <rect class="st0" width="310" height="115"/>
    </clipPath>
    <clipPath id="clippath-1">
      <rect class="st0" y="1" width="310.7" height="114"/>
    </clipPath>
    <clipPath id="clippath-2">
      <rect class="st0" y="1" width="310.7" height="114"/>
    </clipPath>
  </defs>
  <g class="st8">
    <g id="site-logo">
      <g id="Group_6695">
        <rect id="Rectangle_3117" class="st0" y="1" width="137.7" height="114"/>
        <g id="Group_6635">
          <g class="st2">
            <g id="Group_6634">
              <g id="Batavia" class="st1">
                <g class="st1">
                  <path class="st7" d="M139.6,42.6c1.2,1.5,1.7,3.2,1.7,5.1,0,2.8-1,4.9-2.9,6.6-1.9,1.6-4.6,2.4-8.1,2.4h-15.4V23.7h14.9c3.4,0,6,.8,7.9,2.3,1.9,1.5,2.8,3.6,2.8,6.3s-.5,3.6-1.5,4.8c-1,1.3-2.4,2.2-4.1,2.7,1.9.4,3.4,1.4,4.6,2.8ZM123.1,37h5.3c1.3,0,2.3-.3,3-.9.7-.6,1.1-1.4,1.1-2.6s-.4-2-1.1-2.6c-.7-.6-1.7-.9-3-.9h-5.3v6.9ZM132.1,49.3c.7-.6,1.1-1.5,1.1-2.7s-.4-2.1-1.2-2.7c-.8-.7-1.8-1-3.2-1h-5.8v7.3h5.9c1.3,0,2.4-.3,3.1-.9Z"/>
                  <path class="st7" d="M145.9,36.4c1-2,2.4-3.6,4.2-4.7,1.8-1.1,3.7-1.6,5.9-1.6s3.5.4,4.9,1.1c1.4.8,2.5,1.7,3.2,3v-3.7h8v26.2h-8v-3.7c-.8,1.2-1.9,2.2-3.3,3s-3,1.1-4.9,1.1-4.1-.6-5.8-1.7c-1.8-1.1-3.1-2.7-4.2-4.7-1-2.1-1.5-4.4-1.5-7.1s.5-5.1,1.5-7.1ZM162.4,38.8c-1.1-1.2-2.5-1.7-4.1-1.7s-3,.6-4.1,1.7c-1.1,1.1-1.7,2.7-1.7,4.7s.6,3.6,1.7,4.8c1.1,1.2,2.5,1.8,4.1,1.8s3-.6,4.1-1.7c1.1-1.2,1.7-2.7,1.7-4.7s-.6-3.6-1.7-4.7Z"/>
                  <path class="st7" d="M192.5,49.9v6.8h-4.1c-2.9,0-5.2-.7-6.8-2.1-1.6-1.4-2.4-3.8-2.4-7v-10.4h-3.2v-6.7h3.2v-6.4h8v6.4h5.3v6.7h-5.3v10.5c0,.8.2,1.3.6,1.7s1,.5,1.9.5h2.9Z"/>
                  <path class="st7" d="M196.9,36.4c1-2,2.4-3.6,4.2-4.7,1.8-1.1,3.7-1.6,5.9-1.6s3.5.4,4.9,1.1c1.4.8,2.5,1.7,3.2,3v-3.7h8v26.2h-8v-3.7c-.8,1.2-1.9,2.2-3.3,3s-3,1.1-4.9,1.1-4.1-.6-5.8-1.7c-1.8-1.1-3.1-2.7-4.2-4.7-1-2.1-1.5-4.4-1.5-7.1s.5-5.1,1.5-7.1ZM213.4,38.8c-1.1-1.2-2.5-1.7-4.1-1.7s-3,.6-4.1,1.7c-1.1,1.1-1.7,2.7-1.7,4.7s.6,3.6,1.7,4.8c1.1,1.2,2.5,1.8,4.1,1.8s3-.6,4.1-1.7c1.1-1.2,1.7-2.7,1.7-4.7s-.6-3.6-1.7-4.7Z"/>
                  <path class="st7" d="M240.7,49.2l5.7-18.7h8.6l-9.3,26.2h-9.9l-9.3-26.2h8.6l5.7,18.7Z"/>
                  <path class="st7" d="M258.9,26.5c-.9-.8-1.3-1.9-1.3-3.1s.4-2.3,1.3-3.1c.9-.8,2-1.2,3.5-1.2s2.5.4,3.4,1.2c.9.8,1.3,1.9,1.3,3.1s-.4,2.2-1.3,3.1c-.9.8-2,1.2-3.4,1.2s-2.6-.4-3.5-1.2ZM266.4,30.5v26.2h-8v-26.2h8Z"/>
                  <path class="st7" d="M272.1,36.4c1-2,2.4-3.6,4.2-4.7,1.8-1.1,3.7-1.6,5.9-1.6s3.5.4,4.9,1.1c1.4.8,2.5,1.7,3.2,3v-3.7h8v26.2h-8v-3.7c-.8,1.2-1.9,2.2-3.3,3-1.4.8-3,1.1-4.9,1.1s-4.1-.6-5.8-1.7c-1.8-1.1-3.1-2.7-4.2-4.7-1-2.1-1.5-4.4-1.5-7.1s.5-5.1,1.5-7.1ZM288.6,38.8c-1.1-1.2-2.5-1.7-4.1-1.7s-3,.6-4.1,1.7c-1.1,1.1-1.7,2.7-1.7,4.7s.6,3.6,1.7,4.8,2.5,1.8,4.1,1.8,3-.6,4.1-1.7c1.1-1.2,1.7-2.7,1.7-4.7s-.6-3.6-1.7-4.7Z"/>
                </g>
              </g>
            </g>
          </g>
        </g>
        <g id="Public_Library" class="st1">
          <g class="st1">
            <path class="st5" d="M126.8,73.1c-1.1,1.1-2.8,1.6-5.1,1.6h-3.8v8.1h-2.5v-19.5h6.3c2.2,0,3.9.5,5,1.6,1.1,1.1,1.7,2.4,1.7,4.1s-.6,3-1.7,4ZM124.8,71.6c.7-.6,1-1.5,1-2.6,0-2.4-1.4-3.6-4.1-3.6h-3.8v7.2h3.8c1.4,0,2.5-.3,3.1-.9Z"/>
            <path class="st5" d="M145.2,67.5v15.3h-2.5v-2.3c-.5.8-1.2,1.4-2,1.8-.9.4-1.8.7-2.9.7s-2.3-.2-3.2-.7c-1-.5-1.7-1.2-2.3-2.2-.6-1-.8-2.2-.8-3.6v-9h2.5v8.7c0,1.5.4,2.7,1.1,3.5.8.8,1.8,1.2,3.1,1.2s2.4-.4,3.2-1.3,1.2-2.1,1.2-3.7v-8.4h2.5Z"/>
            <path class="st5" d="M154.3,68.1c1-.6,2.2-.9,3.4-.9s2.6.3,3.7,1c1.1.7,2,1.6,2.6,2.8.6,1.2,1,2.6,1,4.1s-.3,2.9-1,4.1c-.6,1.2-1.5,2.2-2.6,2.8-1.1.7-2.3,1-3.7,1s-2.5-.3-3.5-.9c-1-.6-1.8-1.3-2.3-2.2v2.8h-2.5v-20.7h2.5v8.2c.5-.9,1.3-1.7,2.3-2.2ZM161.8,72.1c-.5-.9-1.1-1.5-1.9-2-.8-.4-1.7-.7-2.6-.7s-1.8.2-2.6.7c-.8.5-1.4,1.1-1.9,2s-.7,1.9-.7,3,.2,2.2.7,3,1.1,1.5,1.9,2,1.7.7,2.6.7,1.8-.2,2.6-.7c.8-.5,1.4-1.1,1.9-2s.7-1.9.7-3.1-.2-2.2-.7-3Z"/>
            <path class="st5" d="M171,62.1v20.7h-2.5v-20.7h2.5Z"/>
            <path class="st5" d="M175.4,64.5c-.3-.3-.5-.7-.5-1.2s.2-.9.5-1.2.7-.5,1.2-.5.9.2,1.2.5c.3.3.5.7.5,1.2s-.2.9-.5,1.2c-.3.3-.7.5-1.2.5s-.9-.2-1.2-.5ZM177.9,67.5v15.3h-2.5v-15.3h2.5Z"/>
            <path class="st5" d="M182.2,71c.6-1.2,1.5-2.1,2.6-2.8,1.1-.7,2.4-1,3.9-1s3.4.5,4.7,1.4c1.2.9,2,2.2,2.4,3.8h-2.7c-.3-.9-.8-1.7-1.5-2.2-.8-.5-1.7-.8-2.8-.8s-2.6.5-3.5,1.5c-.9,1-1.3,2.4-1.3,4.2s.4,3.3,1.3,4.3c.9,1,2.1,1.5,3.5,1.5s2.1-.3,2.8-.8c.7-.5,1.3-1.3,1.5-2.2h2.7c-.4,1.6-1.2,2.8-2.5,3.8-1.2.9-2.8,1.4-4.6,1.4s-2.7-.3-3.9-1c-1.1-.7-2-1.6-2.6-2.8s-1-2.6-1-4.2.3-3,1-4.2Z"/>
            <path class="st5" d="M209.2,80.7h6.8v2.1h-9.4v-19.5h2.5v17.4Z"/>
            <path class="st5" d="M218.9,64.5c-.3-.3-.5-.7-.5-1.2s.2-.9.5-1.2.7-.5,1.2-.5.9.2,1.2.5c.3.3.5.7.5,1.2s-.2.9-.5,1.2c-.3.3-.7.5-1.2.5s-.9-.2-1.2-.5ZM221.3,67.5v15.3h-2.5v-15.3h2.5Z"/>
            <path class="st5" d="M230.5,68.1c1-.6,2.2-.9,3.4-.9s2.6.3,3.7,1c1.1.7,2,1.6,2.6,2.8.6,1.2,1,2.6,1,4.1s-.3,2.9-1,4.1c-.6,1.2-1.5,2.2-2.6,2.8-1.1.7-2.3,1-3.7,1s-2.5-.3-3.5-.9c-1-.6-1.8-1.3-2.3-2.2v2.8h-2.5v-20.7h2.5v8.2c.5-.9,1.3-1.7,2.3-2.2ZM237.9,72.1c-.5-.9-1.1-1.5-1.9-2-.8-.4-1.7-.7-2.6-.7s-1.8.2-2.6.7c-.8.5-1.4,1.1-1.9,2-.5.9-.7,1.9-.7,3s.2,2.2.7,3c.5.9,1.1,1.5,1.9,2,.8.5,1.7.7,2.6.7s1.8-.2,2.6-.7c.8-.5,1.4-1.1,1.9-2s.7-1.9.7-3.1-.2-2.2-.7-3Z"/>
            <path class="st5" d="M249.1,67.9c.8-.5,1.8-.7,3-.7v2.6h-.7c-2.9,0-4.3,1.5-4.3,4.6v8.3h-2.5v-15.3h2.5v2.5c.4-.9,1.1-1.6,1.9-2Z"/>
            <path class="st5" d="M255,71c.6-1.2,1.5-2.1,2.6-2.8,1.1-.7,2.3-1,3.7-1s2.5.3,3.5.9c1,.6,1.7,1.3,2.2,2.2v-2.8h2.6v15.3h-2.6v-2.9c-.5.9-1.3,1.6-2.3,2.2-1,.6-2.2.9-3.5.9s-2.6-.3-3.7-1-2-1.6-2.6-2.8c-.6-1.2-1-2.6-1-4.1s.3-2.9,1-4.1ZM266.4,72.1c-.5-.9-1.1-1.5-1.9-2-.8-.5-1.7-.7-2.6-.7s-1.8.2-2.6.7-1.4,1.1-1.9,2-.7,1.9-.7,3,.2,2.2.7,3.1,1.1,1.5,1.9,2,1.7.7,2.6.7,1.8-.2,2.6-.7c.8-.5,1.4-1.1,1.9-2,.5-.9.7-1.9.7-3s-.2-2.2-.7-3Z"/>
            <path class="st5" d="M278.4,67.9c.8-.5,1.8-.7,3-.7v2.6h-.7c-2.9,0-4.3,1.5-4.3,4.6v8.3h-2.5v-15.3h2.5v2.5c.4-.9,1.1-1.6,1.9-2Z"/>
            <path class="st5" d="M297.6,67.5l-9.2,22.6h-2.6l3-7.4-6.2-15.2h2.8l4.8,12.4,4.8-12.4h2.6Z"/>
          </g>
        </g>
        <path id="Path_53252" class="st4" d="M40.2,17.5l28.9-11.7,27.9,11.9v4.6l-27.9-12.2-27.6,10.8-1.3-3.4Z"/>
        <rect id="Rectangle_3119" class="st4" x="48.4" y="34.9" width="42.2" height="43.3"/>
        <path id="Path_53253" class="st4" d="M122,100.8h0s0,0,0,0h0Z"/>
        <path id="Path_53254" class="st4" d="M87.9,86.9h0Z"/>
        <rect id="Rectangle_3120" class="st5" x="1.5" y="108.8" width="135.2" height="4.6"/>
        <rect id="Rectangle_3121" class="st4" x="41.5" y="30.3" width="55.5" height="3.3"/>
        <g id="Group_6637">
          <g class="st3">
            <g id="Group_6636">
              <path id="Path_53255" class="st7" d="M136.7,105.5v-5.2c-1.2-.3-2.4-.6-3.6-1l-.9-.3h0s-1.2-.4-1.2-.4c-1.2-.4-2.3-.8-3.5-1.2l-1.3-.5h-.1s-.4-.2-.4-.2c-1.1-.4-2.3-.8-3.5-1.2l-1.5-.5c-.2,0-.4-.2-.6-.2-.7-.3-1.5-.5-2.4-.8h0s-1.2-.5-1.3-.5c0,0-.1,0-.1,0l-.7-.2c-.6-.2-1.2-.4-1.8-.6h0s0,0-.1,0h-.3c-1.1-.4-2.3-.7-3.4-1h-.5c0-.1,0-.2,0-.2h0s-1.4-.3-1.5-.3l-1.4-.3-1.6-.3h-.1s-1.5-.2-1.5-.2l-1.4-.2s-1.4-.1-1.5-.1h-.2s-.9,0-.9,0c-.2,0-.4,0-.6,0h-1.1c0,0-.3,0-.3,0h-.9c-.9,0-1.8.1-2.8.2h-.5s-.2,0-.2,0l-1.4.2s-.2,0-.2,0l-1.4.2c-.2,0-.5,0-.8.1-.3,0-.5,0-.5,0h-.1s-.5.1-.5.1c-.3,0-.6.1-.9.2s-.5.1-.8.2h-.5c0,.1,0,.1,0,.1h-.5c-.3.2-.6.3-.9.4l-1.3.4h-.2c0,0-1.3.5-1.3.5,0,0,0,0-.1,0,0,0-.5.2-.9.4-.6.2-1.2.5-1.7.7l-1.4.6h.1c0,0-.2,0-.2,0-.2,0-.4.2-.7.3l-.3.2h0s-1.3.7-1.3.7c0,0-1.2.7-1.2.7,0,0-1.9,1.2-2.4,1.5l-.7.5-.4.3c-.3.2-.6.4-.8.6l-.3-.2c-.3-.2-.6-.5-.9-.7l-.5-.3s-.2-.1-.2-.1l-.7-.5c-.3-.2-.7-.4-1-.6l-.6-.4h-.1c0,0-.7-.5-.7-.5l-.5-.3-.3-.2c-.3-.1-.5-.3-.7-.4h-.2c0,0-.1-.2-.2-.2h0s-1.3-.6-1.3-.6l-1.2-.5h-.1s-.4-.2-.4-.2c-.5-.2-1-.4-1.5-.6l-.7-.3h0s-.2,0-.4-.2h-.1s-.8-.3-.8-.3h-.1s0,0,0,0l-1.3-.4-1.4-.4h0s0,0,0,0l-.8-.2h-.5c-.3-.2-.6-.3-.9-.3h-.5c0,0,0-.1-.1-.1h-.7c-.5-.2-1-.3-1.5-.4h-.5c0,0,0,0,0,0h0s-1.4-.2-1.4-.2h-.2s-.5,0-.5,0c-.9,0-1.7,0-2.6-.1-.4,0-2.2,0-2.2,0-.6,0-1.2,0-1.8,0h-.3c-.3,0-.6,0-1,0h-.5s-.5,0-.9.1c-.7,0-1.4.2-2,.2,0,0-.2,0-.2,0h-.2c-.3,0-.5.1-.8.2h-.4c0,0,0,0,0,0h-.3c-.2,0-.4.1-.6.2h-.7c0,.1-.5.2-.5.2-.3,0-.6.1-.8.2h0s0,0-.1,0l-.9.2c-.5.1-1,.3-1.5.4h-.5c0,.1-.8.4-.8.4h-.2s-.4.1-.4.1h-.1s-.8.3-.8.3c-.3,0-.6.2-.9.3-.3,0-.8.2-.8.2h-.2c-.8.3-1.7.7-2.6,1l-1.1.4h0s0,0,0,0c0,0-.4.1-.8.3-.6.2-1.1.4-1.6.6h0s-1,.4-1,.4c0,0,0,0-.1,0h0s-.7.3-.7.3c-.3.1-.6.2-.9.3s-.6.2-.7.2c0,0,0,0,0,0l-1.2.5-1.3.5c-.8.3-1.6.6-2.5.8l-.9.3h-.2c-.6.3-1.3.5-2,.7h-.4c0,.1-.4.2-.4.2-.7.2-1.5.4-2.2.5v5.2l.7-.2,1-.2.8-.2s.1,0,.2,0h.4c.3-.2.6-.3.9-.4l1.1-.3h.1s.7-.3.7-.3c.6-.2,1.2-.4,1.7-.5l1.2-.4h.2c.4-.2.8-.4,1.2-.6l.6-.2c.8-.3,1.6-.6,2.4-.8h.5c0-.1,0-.2.1-.2l1.2-.4c.2,0,.5-.2.8-.3l.5-.2,1.3-.5c.5-.2,1.1-.4,1.6-.6l.7-.2s1.3-.5,1.3-.5c.5-.2,1.1-.4,1.7-.6l.8-.2h.1s.8-.3.8-.3c1.1-.3,2.2-.6,3.3-.9h-.1s.8-.2.8-.2c.4,0,.7-.2,1.1-.3h.2c0,0,.5-.2.5-.2,0,0,0,0,0,0l1.1-.2c.7-.1,1.4-.2,2-.3h.3c.2,0,.5,0,.7-.1,1.2-.1,2.4-.2,3.5-.3h.6s.3,0,.3,0c.7,0,1.5,0,2.2,0h1.6c1.5.2,3.1.4,4.6.6h.3c.3,0,.5.2.8.2h.6c0,.1,1.2.4,1.2.4h0s.6.2.6.2c1.5.4,2.9.9,4.3,1.4.5.2.9.4,1.4.6l.6.3c1.4.6,2.8,1.4,4.1,2.2.3.2.8.5.8.5l.5.3c.5.3,1,.7,1.5,1l.5.4c.8.6,1.6,1.2,2.4,1.9,1.2,1,.5.4.8.6l.8-.5c.6-.5,1.3-1,2-1.6l1.3-1c.5-.4,1.1-.7,1.6-1,1.5-1,3.2-1.9,4.8-2.7l.9-.4,2-.8c1.2-.4,2.4-.8,3.7-1.1h.3c.6-.2,1.3-.4,1.9-.5h0c.7-.2,1.4-.3,2-.4,1-.2,2-.3,3.1-.4h2.2c0,0,.7-.1.7-.1.4,0,.8,0,1.2,0h.6s.2,0,.2,0h.7c1.1,0,2.2.1,3.2.3,1,0,2.1.3,3.1.4.2,0,.5,0,.7.1,1.1.2,2.2.5,3.2.8h-.1c1,.2,2,.5,3.1.8.4.1.8.3.9.3s0,0,.1,0l.7.2c.6.2,1.1.4,1.6.6l1.3.5c.6.2,1.3.5,2,.7l1.6.6.7.2c.6.2,1.2.4,1.7.6h.1s.6.2.6.2c.6.2,1.2.4,1.8.6l1.1.4,1.1.4h.2c0,0,1.2.4,1.2.4h.2c.5.2.9.4,1.4.5.4.1.8.3.8.3h0s1.2.4,1.2.4h.4c.3.2.6.3.8.4h0s0,0,0,0c0,0,.1,0,0,0l.8.2.7.2h.6"/>
              <path id="Path_53256" class="st6" d="M95.8,19.6v-1.4c2.5,1.1,4.2,1.9,4.5,2l1.5-3.4L69.3,2.5l-.7.3-31.7,14.1c.3.7,1.2,2.6,1.5,3.4.2-.1,2-.9,4.5-2,0,0,0,1.4,0,1.4v10.6h-1.4v3.5h1.4v52.3h.3s3.2.2,3.2.2l1.4.2,1.6.3,1.3.2s.5,0,.4,0c0,0,1.4.3,1.4.3l1.4.3s.2,0,.2,0l1.4.4,1.4.4h.4c0,.1,1.3.6,1.3.6h.3c0,.1,1.2.6,1.2.6l1.3.5h.3c0,0,1.2.6,1.2.6,0,0,1.3.6,1.4.6,0,0,.3.1.3.2,0,0,1.2.7,1.3.7,0,0,1.6.9,1.6.9l1.1.7s.6.4.9.6c.3-.2.9-.5.8-.5l1.1-.7.4-.2h0s1.2-.7,1.2-.7c0,0,1.3-.7,1.4-.7l1.5-.7,1.4-.6h0s1.4-.6,1.4-.6c0,0,1.3-.5,1.2-.5l1.6-.6,1.8-.5,1.5-.4,1.4-.3,1.3-.3s1.7-.3,1.7-.3l1.3-.2s1.8-.2,1.8-.2h.5s2.7-.2,2.7-.2h.3v-52.2h1.4v-3.5h-1.4v-10.6ZM43.7,17.8l25.5-11.3,25.5,11.3v2.1l-25.5-11.3-25.5,11.3v-2.1ZM88.7,56.9h0v19.5h0c0,0-18.7,0-18.7,0h0s-1.2,0-1.2,0h0s-19,0-19,0v-40.2h19v19.4h-19v1.2h19v19.6h1.2v-19.6h18.7v-1.2h-18.7v-19.4h18.7s0,0,0,0v19.3h0v1.2ZM96.4,33h-54.3v-2.1h54.3v2.1Z"/>
            </g>
          </g>
        </g>
      </g>
    </g>
  </g>
</svg>
