<svg xmlns="http://www.w3.org/2000/svg" width="205" height="80"><g fill="none" fill-rule="evenodd"><path fill="#CF4B04" d="M46.279 38.788a6.566 6.566 0 0 0-2.003-4.25 6.095 6.095 0 0 0-1.898-1.201 6.09 6.09 0 0 0-2.299-.435c-.813 0-1.579.145-2.298.435-.72.29-1.353.696-1.899 1.219a6.169 6.169 0 0 0-1.323 1.863c-.337.72-.54 1.51-.61 2.369h12.33Zm-6.235 10.658c-1.37 0-2.624-.25-3.761-.749a8.898 8.898 0 0 1-2.926-2.037 9.28 9.28 0 0 1-1.898-3.013 9.833 9.833 0 0 1-.68-3.64c0-1.277.227-2.485.68-3.622a9.172 9.172 0 0 1 1.915-2.995 9.103 9.103 0 0 1 2.944-2.039c1.137-.498 2.39-.748 3.761-.748 1.37 0 2.618.256 3.744.766 1.126.51 2.084 1.19 2.874 2.038a9.023 9.023 0 0 1 1.828 2.96 9.744 9.744 0 0 1 .645 3.5c0 .256-.006.489-.018.697-.012.21-.029.372-.052.488H34.02c.07.905.279 1.73.627 2.473a6.354 6.354 0 0 0 1.358 1.915c.557.535 1.19.953 1.898 1.254a5.669 5.669 0 0 0 2.247.453c.557 0 1.102-.075 1.637-.226a7.113 7.113 0 0 0 1.498-.61 5.193 5.193 0 0 0 1.236-.94c.36-.371.632-.79.818-1.254l2.647.731a6.684 6.684 0 0 1-1.236 1.846 8.191 8.191 0 0 1-1.81 1.445 9.348 9.348 0 0 1-2.282.959 9.744 9.744 0 0 1-2.613.348Zm16.614-2.299c1.09 0 2.107-.203 3.048-.61.94-.405 1.654-.945 2.141-1.62.441-.44.662-.893.662-1.358v-2.681c-1.486-.58-3.03-.87-4.633-.87-1.532 0-2.78.324-3.743.974-.964.65-1.446 1.498-1.446 2.542 0 .512.099.988.296 1.429.197.441.476.824.836 1.15.36.325.784.58 1.271.766.488.185 1.01.278 1.568.278m-.801 2.299c-.86 0-1.66-.145-2.403-.436a5.949 5.949 0 0 1-1.934-1.201 5.652 5.652 0 0 1-1.288-1.794 5.327 5.327 0 0 1-.47-2.246c0-.836.185-1.596.557-2.281.37-.686.9-1.272 1.584-1.76.685-.488 1.498-.87 2.439-1.15.94-.278 1.967-.417 3.082-.417.882 0 1.776.082 2.682.244.906.162 1.707.383 2.403.662v-1.464c0-1.485-.418-2.652-1.254-3.5-.835-.847-2.02-1.271-3.552-1.271-1.835 0-3.762.708-5.782 2.124l-1.01-1.985c2.345-1.578 4.702-2.368 7.07-2.368 2.391 0 4.255.639 5.59 1.916s2.003 3.077 2.003 5.398v7.419c0 .72.325 1.092.975 1.115v2.647c-.325.045-.592.08-.8.104a5.98 5.98 0 0 1-.662.035c-.605 0-1.086-.18-1.446-.54a2.221 2.221 0 0 1-.644-1.306l-.07-1.289a7.864 7.864 0 0 1-3.083 2.49 9.463 9.463 0 0 1-3.987.854m20.305 0c-1.463 0-2.903-.227-4.32-.68-1.416-.452-2.634-1.108-3.656-1.967l1.323-2.055c1.068.813 2.136 1.422 3.205 1.828a9.413 9.413 0 0 0 3.378.61c1.324 0 2.374-.261 3.152-.784.778-.522 1.167-1.26 1.167-2.212 0-.44-.104-.818-.314-1.132-.208-.313-.522-.585-.94-.818-.418-.232-.952-.44-1.602-.627a61.545 61.545 0 0 0-2.264-.592 47.317 47.317 0 0 1-2.821-.801c-.79-.255-1.44-.557-1.95-.905-.512-.349-.883-.767-1.115-1.254-.233-.488-.348-1.092-.348-1.812 0-.905.18-1.712.54-2.42.36-.708.853-1.3 1.48-1.777.626-.475 1.363-.835 2.211-1.08a9.848 9.848 0 0 1 2.734-.365c1.37 0 2.648.22 3.832.662 1.184.441 2.182 1.022 2.995 1.741l-1.393 1.846a7.838 7.838 0 0 0-2.577-1.515 8.716 8.716 0 0 0-2.926-.505c-1.114 0-2.061.238-2.839.714s-1.167 1.236-1.167 2.281c0 .418.075.767.227 1.045.15.279.4.522.749.731.348.21.795.396 1.34.558a39.42 39.42 0 0 0 1.968.522 38 38 0 0 1 3.153.854c.893.29 1.637.633 2.229 1.027.592.396 1.033.86 1.324 1.393.29.535.434 1.185.434 1.95 0 1.696-.65 3.043-1.95 4.041-1.3.999-3.054 1.498-5.26 1.498m19.54-1.254c-.186.093-.43.203-.732.33-.301.129-.644.257-1.027.384a9.002 9.002 0 0 1-1.254.313 7.983 7.983 0 0 1-1.41.122c-1.115 0-2.078-.307-2.892-.923-.812-.615-1.218-1.573-1.218-2.873V33.32h-2.473v-2.403h2.473v-6.06h3.065v6.06h4.075v2.403h-4.075v11.285c.046.674.266 1.162.661 1.463.395.302.859.453 1.394.453.603 0 1.155-.099 1.654-.296.5-.197.842-.353 1.027-.47l.732 2.438Zm15.638-9.404a6.552 6.552 0 0 0-.645-2.386 6.397 6.397 0 0 0-1.358-1.863 6.094 6.094 0 0 0-1.898-1.202 6.088 6.088 0 0 0-2.299-.435c-.813 0-1.58.145-2.299.435-.72.29-1.353.696-1.898 1.219a6.175 6.175 0 0 0-1.324 1.863c-.336.72-.539 1.51-.61 2.369h12.33Zm-6.235 10.658c-1.37 0-2.624-.25-3.761-.749a8.893 8.893 0 0 1-2.926-2.037 9.282 9.282 0 0 1-1.898-3.013 9.842 9.842 0 0 1-.68-3.64c0-1.277.227-2.485.68-3.622a9.18 9.18 0 0 1 1.915-2.995 9.1 9.1 0 0 1 2.944-2.039c1.137-.498 2.39-.748 3.761-.748 1.37 0 2.618.256 3.744.766 1.126.51 2.084 1.19 2.874 2.038a9.01 9.01 0 0 1 1.828 2.96 9.74 9.74 0 0 1 .644 3.5c0 .256-.006.489-.017.697-.012.21-.03.372-.052.488H99.08c.069.905.277 1.73.626 2.473a6.356 6.356 0 0 0 1.358 1.915c.557.535 1.19.953 1.898 1.254a5.668 5.668 0 0 0 2.247.453c.557 0 1.102-.075 1.637-.226a7.092 7.092 0 0 0 1.497-.61 5.18 5.18 0 0 0 1.237-.94c.36-.371.632-.79.819-1.254l2.647.731a6.694 6.694 0 0 1-1.237 1.846 8.193 8.193 0 0 1-1.811 1.445 9.344 9.344 0 0 1-2.281.959 9.746 9.746 0 0 1-2.613.348Zm20.933-15.848c-1.533.047-2.886.441-4.058 1.184-1.173.744-2.003 1.777-2.49 3.1v11.216h-3.066V30.916h2.856v4.215c.627-1.254 1.452-2.27 2.474-3.048 1.021-.778 2.112-1.213 3.274-1.306h.592c.162 0 .3.012.418.035v2.786Zm8.498 15.848c-1.463 0-2.904-.227-4.32-.68-1.416-.452-2.635-1.108-3.656-1.967l1.323-2.055c1.068.813 2.136 1.422 3.204 1.828a9.41 9.41 0 0 0 3.379.61c1.323 0 2.374-.261 3.152-.784.778-.522 1.167-1.26 1.167-2.212 0-.44-.105-.818-.314-1.132-.209-.313-.523-.585-.94-.818-.418-.232-.953-.44-1.602-.627a61.671 61.671 0 0 0-2.264-.592 47.266 47.266 0 0 1-2.821-.801c-.79-.255-1.44-.557-1.95-.905-.511-.349-.884-.767-1.115-1.254-.233-.488-.349-1.092-.349-1.812 0-.905.18-1.712.54-2.42.36-.708.853-1.3 1.48-1.777.627-.475 1.364-.835 2.212-1.08a9.856 9.856 0 0 1 2.734-.365c1.37 0 2.647.22 3.832.662 1.184.441 2.182 1.022 2.994 1.741l-1.393 1.846a7.835 7.835 0 0 0-2.577-1.515 8.714 8.714 0 0 0-2.925-.505c-1.115 0-2.061.238-2.839.714-.779.476-1.167 1.236-1.167 2.281 0 .418.075.767.227 1.045.15.279.4.522.749.731.348.21.794.396 1.34.558a39.28 39.28 0 0 0 1.968.522 38.01 38.01 0 0 1 3.152.854c.894.29 1.637.633 2.23 1.027.592.396 1.033.86 1.323 1.393.29.535.435 1.185.435 1.95 0 1.696-.65 3.043-1.95 4.041-1.3.999-3.054 1.498-5.26 1.498m23.72-10.658a6.552 6.552 0 0 0-.646-2.386 6.397 6.397 0 0 0-1.358-1.863 6.094 6.094 0 0 0-1.898-1.202 6.088 6.088 0 0 0-2.299-.435c-.813 0-1.579.145-2.299.435-.72.29-1.352.696-1.897 1.219a6.167 6.167 0 0 0-1.324 1.863c-.337.72-.54 1.51-.61 2.369h12.33Zm-6.236 10.658c-1.37 0-2.623-.25-3.76-.749a8.893 8.893 0 0 1-2.926-2.037 9.282 9.282 0 0 1-1.9-3.013 9.842 9.842 0 0 1-.678-3.64c0-1.277.226-2.485.679-3.622a9.18 9.18 0 0 1 1.916-2.995 9.102 9.102 0 0 1 2.943-2.039c1.137-.498 2.391-.748 3.761-.748s2.618.256 3.744.766c1.127.51 2.084 1.19 2.874 2.038a9.01 9.01 0 0 1 1.828 2.96 9.74 9.74 0 0 1 .645 3.5c0 .256-.007.489-.018.697-.012.21-.03.372-.052.488h-15.08c.068.905.277 1.73.626 2.473a6.353 6.353 0 0 0 1.358 1.915c.557.535 1.19.953 1.898 1.254a5.668 5.668 0 0 0 2.247.453c.557 0 1.103-.075 1.637-.226a7.102 7.102 0 0 0 1.497-.61 5.18 5.18 0 0 0 1.237-.94c.36-.371.632-.79.819-1.254l2.647.731a6.694 6.694 0 0 1-1.237 1.846 8.198 8.198 0 0 1-1.81 1.445 9.342 9.342 0 0 1-2.283.959 9.743 9.743 0 0 1-2.612.348Zm16.613-2.299a7.592 7.592 0 0 0 3.048-.61c.94-.405 1.655-.945 2.142-1.62.441-.44.662-.893.662-1.358v-2.681c-1.486-.58-3.03-.87-4.633-.87-1.532 0-2.78.324-3.744.974-.963.65-1.445 1.498-1.445 2.542 0 .512.099.988.296 1.429.197.441.476.824.836 1.15a4 4 0 0 0 1.271.766c.488.185 1.01.278 1.567.278m-.8 2.299c-.86 0-1.661-.145-2.403-.436a5.954 5.954 0 0 1-1.934-1.201 5.64 5.64 0 0 1-1.288-1.794 5.33 5.33 0 0 1-.47-2.246c0-.836.185-1.596.556-2.281.372-.686.9-1.272 1.585-1.76.685-.488 1.498-.87 2.439-1.15.94-.278 1.967-.417 3.082-.417.882 0 1.776.082 2.682.244.905.162 1.707.383 2.403.662v-1.464c0-1.485-.418-2.652-1.254-3.5-.836-.847-2.02-1.271-3.553-1.271-1.834 0-3.761.708-5.78 2.124l-1.011-1.985c2.345-1.578 4.702-2.368 7.07-2.368 2.391 0 4.255.639 5.59 1.916 1.336 1.277 2.003 3.077 2.003 5.398v7.419c0 .72.325 1.092.975 1.115v2.647c-.325.045-.592.08-.8.104-.21.023-.43.035-.662.035-.605 0-1.086-.18-1.446-.54a2.221 2.221 0 0 1-.644-1.306l-.07-1.289a7.86 7.86 0 0 1-3.083 2.49 9.463 9.463 0 0 1-3.987.854m13.304-25.774h3.065v20.723c0 .675.18 1.202.54 1.585.36.383.864.575 1.515.575.255 0 .557-.04.905-.122.349-.08.674-.18.975-.296l.488 2.473c-.511.209-1.114.383-1.811.522-.697.14-1.312.21-1.846.21-1.184 0-2.12-.337-2.804-1.01-.685-.674-1.027-1.614-1.027-2.822V23.672ZM197.4 49.446a14.09 14.09 0 0 1-4.32-.68c-1.416-.452-2.635-1.108-3.656-1.967l1.324-2.055c1.067.813 2.135 1.422 3.204 1.828a9.41 9.41 0 0 0 3.378.61c1.323 0 2.374-.261 3.152-.784.778-.522 1.167-1.26 1.167-2.212 0-.44-.104-.818-.314-1.132-.209-.313-.522-.585-.94-.818-.418-.232-.952-.44-1.602-.627a61.545 61.545 0 0 0-2.264-.592 47.266 47.266 0 0 1-2.821-.801c-.79-.255-1.44-.557-1.95-.905-.512-.349-.884-.767-1.115-1.254-.232-.488-.349-1.092-.349-1.812 0-.905.18-1.712.54-2.42a5.1 5.1 0 0 1 1.48-1.777c.628-.475 1.365-.835 2.212-1.08a9.852 9.852 0 0 1 2.734-.365c1.37 0 2.648.22 3.832.662 1.184.441 2.182 1.022 2.995 1.741l-1.393 1.846a7.84 7.84 0 0 0-2.578-1.515 8.714 8.714 0 0 0-2.925-.505c-1.114 0-2.061.238-2.839.714s-1.166 1.236-1.166 2.281c0 .418.074.767.226 1.045.15.279.4.522.749.731.348.21.795.396 1.34.558a39.28 39.28 0 0 0 1.969.522 38.01 38.01 0 0 1 3.151.854c.894.29 1.637.633 2.23 1.027.592.396 1.032.86 1.323 1.393.29.535.435 1.185.435 1.95 0 1.696-.65 3.043-1.95 4.041-1.3.999-3.054 1.498-5.259 1.498"/><path fill="#FFA300" d="M42.706 21.36a2.707 2.707 0 1 1-5.413 0 2.707 2.707 0 0 1 5.413 0m-.676-8.248a2.03 2.03 0 1 1-4.06 0 2.03 2.03 0 0 1 4.06 0m-.677-6.894a1.353 1.353 0 1 1-2.707 0 1.353 1.353 0 0 1 2.707 0M40.676.676a.677.677 0 1 1-1.353 0 .677.677 0 0 1 1.353 0m2.03 57.963a2.707 2.707 0 1 0-5.413 0 2.707 2.707 0 0 0 5.413 0m-.676 8.248a2.03 2.03 0 1 0-4.06 0 2.03 2.03 0 0 0 4.06 0m-.677 6.895a1.353 1.353 0 1 0-2.707 0 1.353 1.353 0 0 0 2.707 0m-.677 5.541a.677.677 0 1 0-1.353 0 .677.677 0 0 0 1.353 0m-9.09-64.94a2.03 2.03 0 1 1-3.752 1.553 2.03 2.03 0 0 1 3.752-1.554m-3.264-6.11a1.353 1.353 0 1 1-2.5 1.035 1.353 1.353 0 0 1 2.5-1.036m23.842 55.793a2.03 2.03 0 1 0-3.75 1.553 2.03 2.03 0 0 0 3.75-1.553m2.014 6.628a1.354 1.354 0 1 0-2.501 1.037 1.354 1.354 0 0 0 2.5-1.037M28.734 24.906a2.707 2.707 0 1 1-3.829 3.828 2.707 2.707 0 0 1 3.83-3.828m-6.311-5.354a2.03 2.03 0 1 1-2.87 2.871 2.03 2.03 0 0 1 2.87-2.87m-5.354-4.398a1.353 1.353 0 1 1-1.913 1.914 1.353 1.353 0 0 1 1.913-1.914m-4.397-3.44a.677.677 0 1 1-.957.957.677.677 0 0 1 .957-.957m3.264 16.12a2.03 2.03 0 1 1-1.554 3.75 2.03 2.03 0 0 1 1.554-3.75m-6.63-2.013a1.354 1.354 0 1 1-1.036 2.5 1.354 1.354 0 0 1 1.037-2.5M21.36 37.293a2.707 2.707 0 1 1 0 5.413 2.707 2.707 0 0 1 0-5.413m-8.248.677a2.03 2.03 0 1 1 0 4.06 2.03 2.03 0 0 1 0-4.06m-6.895.676a1.353 1.353 0 1 1 0 2.707 1.353 1.353 0 0 1 0-2.707m-5.54.677a.677.677 0 1 1 0 1.353.677.677 0 0 1 0-1.353m13.705 9.09a2.03 2.03 0 1 1 1.553 3.753 2.03 2.03 0 0 1-1.553-3.752M8.27 51.677a1.354 1.354 0 1 1 1.036 2.501 1.354 1.354 0 0 1-1.036-2.5m16.635-.412a2.707 2.707 0 1 1 3.827 3.828 2.707 2.707 0 0 1-3.827-3.828m-5.354 6.31a2.03 2.03 0 1 1 2.87 2.871 2.03 2.03 0 0 1-2.87-2.87m-4.397 5.353a1.353 1.353 0 1 1 1.914 1.915 1.353 1.353 0 0 1-1.914-1.915m-3.44 4.397a.677.677 0 1 1 .957.959.677.677 0 0 1-.957-.959m16.12-3.263a2.03 2.03 0 1 1 3.75 1.553 2.03 2.03 0 0 1-3.75-1.553m-2.014 6.628a1.354 1.354 0 1 1 2.502 1.037 1.354 1.354 0 0 1-2.502-1.037m22.592-56.31a2.03 2.03 0 1 0 3.753 1.554 2.03 2.03 0 0 0-3.753-1.554m3.264-6.11a1.353 1.353 0 1 0 2.5 1.035 1.353 1.353 0 0 0-2.5-1.036"/></g></svg>